# xmcd
#
# Track frame offsets:
#	150
#	14309
#	27452
#	43773
#	63050
#	81449
#	100614
#	118216
#	134602
#
# Disc length: 2029
#
# Revision: 3
# Processed by: cddbd v1.5.2PL0 Copyright (c) Steve Scherf et al.
# Submitted via: kJams Pro (development) 1.0patch52.24
#
DISCID=7607eb09
DTITLE=Unknown Artist - Fastrax
DYEAR=2011
DGENRE=Country
TTITLE0=Dierks Bently - Am I The Only One
TTITLE1=Jake Owens - Barefoot Bluejean Nigh
TTITLE2=Rascal Flatts§ Natisha Bedlingfield - Easy (duet)
TTITLE3=Brad Pasiley§Carrie Underwood - Remind Me
TTITLE4=Scott McCreery - I Love You This Big
TTITLE5=Lauren Aliana - Like My Mother Does
TTITLE6=Kenny Chesney§Grace Potter - Your And Tequila
TTITLE7=Trace Adkins - Just Fishin'
TTITLE8=Eric Church - HomeBoy
EXTD=
EXTT0=
EXTT1=
EXTT2=
EXTT3=
EXTT4=
EXTT5=
EXTT6=
EXTT7=
EXTT8=
PLAYORDER=
